<svg width="24" height="24" fill="none" xmlns="http://www.w3.org/2000/svg"><g fill="none" fill-rule="evenodd"><path d="M24 0H0v24h24z"/><path d="M7.192 5.34A8.624 8.624 0 0 1 19.79 7.962a8.624 8.624 0 0 1-3.158 11.78 8.624 8.624 0 0 1-11.78-3.156 8.584 8.584 0 0 1-1.031-5.775" stroke="#FFF" stroke-width="1.6" stroke-linecap="round"/><path d="M9.957 15.49V9.327H8.792l-1.733.782v1.013l1.582-.497v4.863h1.316zm4.09.133c.753 0 1.331-.28 1.734-.836.403-.558.605-1.355.605-2.392 0-1.031-.204-1.826-.61-2.383-.405-.557-.982-.836-1.729-.836-.747 0-1.323.28-1.73.836-.405.558-.608 1.352-.608 2.383 0 1.038.201 1.835.604 2.392.403.557.982.836 1.734.836zm0-1.068c-.361 0-.619-.166-.774-.497-.153-.332-.23-.886-.23-1.663 0-.77.077-1.322.23-1.654.155-.331.413-.497.774-.497.362 0 .62.166.774.497.154.332.231.883.231 1.654 0 .777-.077 1.33-.231 1.663-.154.331-.412.497-.774.497zm-7.51-11.07L5.33 6.21a.394.394 0 0 0 .321.557l2.963.315a.42.42 0 0 0 .46-.359.394.394 0 0 0-.049-.25L7.27 3.435a.408.408 0 0 0-.56-.142.419.419 0 0 0-.173.193z" fill="#FFF" fill-rule="nonzero"/></g></svg>
