<svg width="24" height="24" fill="none" xmlns="http://www.w3.org/2000/svg"><g fill="none" fill-rule="evenodd"><path d="M24 0H0v24h24z"/><path d="M17.114 5.395a8.378 8.378 0 0 0-12.24 2.547 8.378 8.378 0 0 0 3.067 11.444 8.377 8.377 0 0 0 11.445-3.067 8.338 8.338 0 0 0 1.001-5.61" stroke="#FFF" stroke-width="1.6" stroke-linecap="round"/><path d="m17.975 3.386 1.174 2.646a.383.383 0 0 1-.313.54l-2.878.307a.409.409 0 0 1-.447-.349.383.383 0 0 1 .047-.242l1.704-2.952a.396.396 0 0 1 .543-.138c.076.043.135.11.17.188zm-7.617 11.661V9.06H9.227l-1.684.76v.984l1.537-.483v4.725h1.278zm3.973.13c.732 0 1.294-.272 1.685-.813.391-.541.587-1.316.587-2.323 0-1.002-.197-1.774-.592-2.315-.394-.542-.954-.812-1.68-.812-.725 0-1.285.271-1.68.812-.394.542-.59 1.313-.59 2.315 0 1.008.195 1.782.586 2.323.392.542.953.812 1.684.812zm0-1.038c-.35 0-.6-.16-.751-.483-.15-.322-.224-.86-.224-1.615 0-.749.075-1.284.224-1.606.15-.323.4-.484.751-.484.352 0 .602.161.752.484.15.322.225.857.225 1.606 0 .754-.076 1.293-.225 1.615-.15.322-.4.483-.752.483z" fill="#FFF" fill-rule="nonzero"/></g></svg>
