<?xml version="1.0" standalone="no"?>
<!DOCTYPE svg PUBLIC "-//W3C//DTD SVG 20010904//EN"
 "http://www.w3.org/TR/2001/REC-SVG-20010904/DTD/svg10.dtd">
<svg version="1.0" xmlns="http://www.w3.org/2000/svg"
 width="700.000000pt" height="700.000000pt" viewBox="0 0 700.000000 700.000000"
 preserveAspectRatio="xMidYMid meet">
<metadata>
Created by potrace 1.11, written by Peter Selinger 2001-2013
</metadata>
<g transform="translate(0.000000,700.000000) scale(0.100000,-0.100000)"
fill="#000000" stroke="none">
<path d="M2605 6994 c-397 -35 -701 -118 -1040 -284 -290 -142 -498 -292 -740
-535 -243 -242 -393 -450 -535 -740 -146 -299 -227 -571 -272 -910 -19 -144
-19 -1906 0 -2050 45 -339 126 -611 272 -910 142 -290 292 -498 535 -740 242
-243 450 -393 740 -535 299 -146 571 -227 910 -272 144 -19 1906 -19 2050 0
339 45 611 126 910 272 290 142 498 292 740 535 243 242 393 450 535 740 146
299 227 571 272 910 19 144 19 1906 0 2050 -45 339 -126 611 -272 910 -142
290 -292 498 -535 740 -242 243 -450 393 -740 535 -283 138 -508 209 -840 263
-125 20 -166 21 -1040 22 -500 1 -928 1 -950 -1z m2360 -2413 c75 -37 147
-111 183 -189 23 -49 27 -70 27 -152 0 -86 -3 -101 -32 -162 -54 -115 -151
-187 -281 -207 -126 -20 -242 20 -331 114 -58 61 -87 117 -102 199 -26 141 53
309 180 384 102 60 250 65 356 13z m-2465 -41 c20 -20 20 -33 20 -582 0 -598
3 -649 50 -787 47 -141 126 -264 237 -372 191 -186 412 -275 683 -273 209 0
363 46 534 158 229 149 380 386 418 657 18 127 -7 119 358 119 302 0 311 -1
331 -21 20 -20 21 -28 15 -103 -48 -581 -400 -1090 -931 -1346 -428 -207 -900
-224 -1350 -49 -329 127 -631 386 -822 704 -54 90 -125 256 -157 367 -59 203
-59 212 -63 885 -4 618 -4 622 16 642 20 20 31 21 331 21 297 0 311 -1 330
-20z"/>
</g>
</svg>
